<?xml version="1.0" encoding="UTF-8" standalone="no"?>
<!-- Created with Inkscape (http://www.inkscape.org/) -->

<svg
   version="1.1"
   id="svg3108"
   xml:space="preserve"
   width="682.66669"
   height="682.66669"
   viewBox="0 0 682.66669 682.66669"
   xmlns="http://www.w3.org/2000/svg"
   xmlns:svg="http://www.w3.org/2000/svg"><defs
     id="defs3112"><clipPath
       clipPathUnits="userSpaceOnUse"
       id="clipPath3130"><path
         d="M 0,512 H 512 V 0 H 0 Z"
         id="path3128" /></clipPath></defs><g
     id="g3114"
     transform="matrix(1.3333333,0,0,-1.3333333,0,682.66667)"><g
       id="g3116"
       transform="translate(167.001,151)"><path
         d="m 0,0 h 240 l 41.514,160.125"
         style="fill:none;stroke:#000000;stroke-width:30;stroke-linecap:butt;stroke-linejoin:miter;stroke-miterlimit:10;stroke-dasharray:none;stroke-opacity:1"
         id="path3118" /></g><g
       id="g3120"
       transform="translate(339.917,331)"><path
         d="M 0,0 H -212.916"
         style="fill:none;stroke:#000000;stroke-width:30;stroke-linecap:butt;stroke-linejoin:miter;stroke-miterlimit:10;stroke-dasharray:none;stroke-opacity:1"
         id="path3122" /></g><g
       id="g3124"><g
         id="g3126"
         clip-path="url(#clipPath3130)"><g
           id="g3132"
           transform="translate(407.001,91)"><path
             d="m 0,0 h -270 c -16.569,0 -30,13.432 -30,30 0,16.568 13.431,30 30,30 h 30 l -60,270 h -92"
             style="fill:none;stroke:#000000;stroke-width:30;stroke-linecap:square;stroke-linejoin:miter;stroke-miterlimit:10;stroke-dasharray:none;stroke-opacity:1"
             id="path3134" /></g><g
           id="g3136"
           transform="translate(147.001,241)"><path
             d="M 0,0 H 283.333"
             style="fill:none;stroke:#000000;stroke-width:30;stroke-linecap:butt;stroke-linejoin:miter;stroke-miterlimit:10;stroke-dasharray:none;stroke-opacity:1"
             id="path3138" /></g><g
           id="g3140"
           transform="translate(249.501,151)"><path
             d="M 0,0 -15,180"
             style="fill:none;stroke:#000000;stroke-width:30;stroke-linecap:butt;stroke-linejoin:miter;stroke-miterlimit:10;stroke-dasharray:none;stroke-opacity:1"
             id="path3142" /></g><g
           id="g3144"
           transform="translate(339.501,331)"><path
             d="M 0,0 -15,-180"
             style="fill:none;stroke:#000000;stroke-width:30;stroke-linecap:butt;stroke-linejoin:miter;stroke-miterlimit:10;stroke-dasharray:none;stroke-opacity:1"
             id="path3146" /></g><g
           id="g3148"
           transform="translate(227.001,61)"><path
             d="m 0,0 c 0,-16.568 -13.432,-30 -30,-30 -16.569,0 -30,13.432 -30,30 0,16.568 13.431,30 30,30 C -13.432,30 0,16.568 0,0 Z"
             style="fill:none;stroke:#000000;stroke-width:30;stroke-linecap:butt;stroke-linejoin:miter;stroke-miterlimit:10;stroke-dasharray:none;stroke-opacity:1"
             id="path3150" /></g><g
           id="g3152"
           transform="translate(377.001,61)"><path
             d="m 0,0 c 0,-16.568 -13.432,-30 -30,-30 -16.569,0 -30,13.432 -30,30 0,16.568 13.431,30 30,30 C -13.432,30 0,16.568 0,0 Z"
             style="fill:none;stroke:#000000;stroke-width:30;stroke-linecap:butt;stroke-linejoin:miter;stroke-miterlimit:10;stroke-dasharray:none;stroke-opacity:1"
             id="path3154" /></g><g
           id="g3156"
           transform="translate(497.001,391)"><path
             d="m 0,0 c 0,-49.706 -40.295,-90 -90,-90 -49.706,0 -90,40.294 -90,90 0,49.706 40.294,90 90,90 C -40.295,90 0,49.706 0,0 Z"
             style="fill:none;stroke:#000000;stroke-width:30;stroke-linecap:butt;stroke-linejoin:miter;stroke-miterlimit:10;stroke-dasharray:none;stroke-opacity:1"
             id="path3158" /></g><g
           id="g3160"
           transform="translate(377.001,391)"><path
             d="M 0,0 H 60"
             style="fill:none;stroke:#000000;stroke-width:30;stroke-linecap:square;stroke-linejoin:miter;stroke-miterlimit:10;stroke-dasharray:none;stroke-opacity:1"
             id="path3162" /></g><g
           id="g3164"
           transform="translate(407.001,421)"><path
             d="M 0,0 V -60"
             style="fill:none;stroke:#000000;stroke-width:30;stroke-linecap:square;stroke-linejoin:miter;stroke-miterlimit:10;stroke-dasharray:none;stroke-opacity:1"
             id="path3166" /></g></g></g></g></svg>
